Mono_opsz9.ufo
<glyph name="quotedbl" format="2">
  <advance width="525"/>
  <unicode hex="0022"/>
  <outline>
    <contour>
      <point x="220.0" y="574" type="line"/>
      <point x="220.0" y="609"/>
      <point x="191.0" y="622"/>
      <point x="174.0" y="622" type="curve" smooth="yes"/>
      <point x="160.0" y="622"/>
      <point x="124.0" y="613"/>
      <point x="127.0" y="565" type="curve" smooth="yes"/>
      <point x="140.0" y="365" type="line" smooth="yes"/>
      <point x="142.0" y="340"/>
      <point x="151.0" y="328"/>
      <point x="174.0" y="328" type="curve" smooth="yes"/>
      <point x="194.0" y="328"/>
      <point x="206.0" y="340"/>
      <point x="207.0" y="364" type="curve" smooth="yes"/>
    </contour>
    <contour>
      <point x="397.0" y="574" type="line"/>
      <point x="397.0" y="609"/>
      <point x="368.0" y="622"/>
      <point x="351.0" y="622" type="curve" smooth="yes"/>
      <point x="337.0" y="622"/>
      <point x="301.0" y="613"/>
      <point x="304.0" y="565" type="curve" smooth="yes"/>
      <point x="317.0" y="365" type="line" smooth="yes"/>
      <point x="319.0" y="340"/>
      <point x="328.0" y="328"/>
      <point x="351.0" y="328" type="curve" smooth="yes"/>
      <point x="371.0" y="328"/>
      <point x="383.0" y="340"/>
      <point x="384.0" y="364" type="curve" smooth="yes"/>
    </contour>
  </outline>
</glyph>
<glyph name="percent" format="2">
  <advance width="525"/>
  <unicode hex="0025"/>
  <outline>
    <contour>
      <point x="433" y="634" type="line" smooth="yes"/>
      <point x="437" y="643"/>
      <point x="439" y="649"/>
      <point x="439" y="656" type="curve" smooth="yes"/>
      <point x="439" y="679"/>
      <point x="420" y="694"/>
      <point x="402" y="694" type="curve" smooth="yes"/>
      <point x="376" y="694"/>
      <point x="368" y="674"/>
      <point x="364" y="663" type="curve" smooth="yes"/>
      <point x="90" y="-24" type="line"/>
      <point x="88" y="-30"/>
      <point x="85" y="-36"/>
      <point x="85" y="-45" type="curve" smooth="yes"/>
      <point x="85" y="-66"/>
      <point x="102" y="-83"/>
      <point x="123" y="-83" type="curve" smooth="yes"/>
      <point x="148" y="-83"/>
      <point x="155" y="-63"/>
      <point x="160" y="-52" type="curve" smooth="yes"/>
    </contour>
    <contour>
      <point x="489" y="50" type="curve" smooth="yes"/>
      <point x="489" y="123"/>
      <point x="453" y="183"/>
      <point x="402" y="183" type="curve" smooth="yes"/>
      <point x="350" y="183"/>
      <point x="315" y="123"/>
      <point x="315" y="50" type="curve" smooth="yes"/>
      <point x="315" y="-23"/>
      <point x="351" y="-83"/>
      <point x="402" y="-83" type="curve" smooth="yes"/>
      <point x="454" y="-83"/>
      <point x="489" y="-23"/>
    </contour>
    <contour>
      <point x="402" y="-17" type="curve" smooth="yes"/>
      <point x="394" y="-17"/>
      <point x="375" y="6"/>
      <point x="375" y="50" type="curve" smooth="yes"/>
      <point x="375" y="94"/>
      <point x="394" y="117"/>
      <point x="402" y="117" type="curve" smooth="yes"/>
      <point x="410" y="117"/>
      <point x="429" y="94"/>
      <point x="429" y="50" type="curve" smooth="yes"/>
      <point x="429" y="6"/>
      <point x="410" y="-17"/>
    </contour>
    <contour>
      <point x="209" y="560" type="curve" smooth="yes"/>
      <point x="209" y="635"/>
      <point x="173" y="694"/>
      <point x="122" y="694" type="curve" smooth="yes"/>
      <point x="70" y="694"/>
      <point x="35" y="632"/>
      <point x="35" y="561" type="curve" smooth="yes"/>
      <point x="35" y="486"/>
      <point x="71" y="427"/>
      <point x="122" y="427" type="curve" smooth="yes"/>
      <point x="174" y="427"/>
      <point x="209" y="489"/>
    </contour>
    <contour>
      <point x="122" y="493" type="curve" smooth="yes"/>
      <point x="113" y="493"/>
      <point x="95" y="517"/>
      <point x="95" y="560" type="curve" smooth="yes"/>
      <point x="95" y="605"/>
      <point x="114" y="628"/>
      <point x="122" y="628" type="curve" smooth="yes"/>
      <point x="131" y="628"/>
      <point x="149" y="604"/>
      <point x="149" y="561" type="curve" smooth="yes"/>
      <point x="149" y="516"/>
      <point x="130" y="493"/>
    </contour>
  </outline>
</glyph>
<glyph name="one" format="2">
  <advance width="525"/>
  <unicode hex="0031"/>
  <outline>
    <contour>
      <point x="314" y="580" type="line" smooth="yes"/>
      <point x="314" y="595"/>
      <point x="314" y="622"/>
      <point x="282" y="622" type="curve" smooth="yes"/>
      <point x="265" y="622"/>
      <point x="257" y="613"/>
      <point x="251" y="600" type="curve" smooth="yes"/>
      <point x="220" y="530"/>
      <point x="180" y="503"/>
      <point x="140" y="500" type="curve" smooth="yes"/>
      <point x="125" y="499"/>
      <point x="103" y="497"/>
      <point x="103" y="467" type="curve" smooth="yes"/>
      <point x="103" y="447"/>
      <point x="114" y="435"/>
      <point x="138" y="435" type="curve" smooth="yes"/>
      <point x="178" y="435"/>
      <point x="217" y="456"/>
      <point x="240" y="476" type="curve"/>
      <point x="240" y="65" type="line"/>
      <point x="151" y="65" type="line" smooth="yes"/>
      <point x="135" y="65"/>
      <point x="109" y="65"/>
      <point x="109" y="32" type="curve" smooth="yes"/>
      <point x="109" y="0"/>
      <point x="136" y="0"/>
      <point x="151" y="0" type="curve" smooth="yes"/>
      <point x="403" y="0" type="line" smooth="yes"/>
      <point x="418" y="0"/>
      <point x="445" y="0"/>
      <point x="445" y="32" type="curve" smooth="yes"/>
      <point x="445" y="65"/>
      <point x="419" y="65"/>
      <point x="403" y="65" type="curve" smooth="yes"/>
      <point x="314" y="65" type="line"/>
    </contour>
  </outline>
</glyph>
<glyph name="nine" format="2">
  <advance width="525"/>
  <unicode hex="0039"/>
  <outline>
    <contour>
      <point x="398" y="270" type="curve"/>
      <point x="385" y="143"/>
      <point x="306" y="54"/>
      <point x="217" y="54" type="curve" smooth="yes"/>
      <point x="204" y="54"/>
      <point x="175" y="55"/>
      <point x="155" y="70" type="curve"/>
      <point x="159" y="75"/>
      <point x="163" y="80"/>
      <point x="163" y="97" type="curve" smooth="yes"/>
      <point x="163" y="120"/>
      <point x="146" y="143"/>
      <point x="117" y="143" type="curve" smooth="yes"/>
      <point x="90" y="143"/>
      <point x="70" y="124"/>
      <point x="70" y="94" type="curve" smooth="yes"/>
      <point x="70" y="48"/>
      <point x="102" y="-11"/>
      <point x="216" y="-11" type="curve" smooth="yes"/>
      <point x="351" y="-11"/>
      <point x="474" y="116"/>
      <point x="474" y="311" type="curve" smooth="yes"/>
      <point x="474" y="547"/>
      <point x="366" y="622"/>
      <point x="265" y="622" type="curve" smooth="yes"/>
      <point x="152" y="622"/>
      <point x="50" y="538"/>
      <point x="50" y="418" type="curve" smooth="yes"/>
      <point x="50" y="305"/>
      <point x="139" y="215"/>
      <point x="251" y="215" type="curve" smooth="yes"/>
      <point x="296" y="215"/>
      <point x="349" y="228"/>
    </contour>
    <contour>
      <point x="387" y="420" type="curve"/>
      <point x="388" y="413"/>
      <point x="390" y="397"/>
      <point x="390" y="390" type="curve" smooth="yes"/>
      <point x="390" y="332"/>
      <point x="333" y="281"/>
      <point x="256" y="281" type="curve" smooth="yes"/>
      <point x="176" y="281"/>
      <point x="124" y="346"/>
      <point x="124" y="418" type="curve" smooth="yes"/>
      <point x="124" y="502"/>
      <point x="193" y="557"/>
      <point x="265" y="557" type="curve" smooth="yes"/>
      <point x="332" y="557"/>
      <point x="366" y="502"/>
      <point x="383" y="449" type="curve" smooth="yes"/>
      <point x="385" y="443"/>
      <point x="386" y="437"/>
      <point x="387" y="432" type="curve"/>
      <point x="387" y="432"/>
      <point x="388" y="427"/>
      <point x="388" y="427" type="curve"/>
      <point x="388" y="427"/>
      <point x="387" y="420"/>
    </contour>
  </outline>
</glyph>
<glyph name="semicolon" format="2">
  <advance width="525"/>
  <unicode hex="003B"/>
  <outline>
    <contour>
      <point x="326" y="367" type="curve" smooth="yes"/>
      <point x="326" y="404"/>
      <point x="295" y="431"/>
      <point x="263" y="431" type="curve" smooth="yes"/>
      <point x="226" y="431"/>
      <point x="199" y="400"/>
      <point x="199" y="368" type="curve" smooth="yes"/>
      <point x="199" y="331"/>
      <point x="230" y="304"/>
      <point x="262" y="304" type="curve" smooth="yes"/>
      <point x="299" y="304"/>
      <point x="326" y="335"/>
    </contour>
    <contour>
      <point x="263" y="0" type="curve"/>
      <point x="254" y="-34"/>
      <point x="230" y="-62"/>
      <point x="200" y="-77" type="curve"/>
      <point x="193" y="-80"/>
      <point x="178" y="-87"/>
      <point x="178" y="-106" type="curve" smooth="yes"/>
      <point x="178" y="-121"/>
      <point x="193" y="-139"/>
      <point x="212" y="-139" type="curve" smooth="yes"/>
      <point x="234" y="-139"/>
      <point x="331" y="-85"/>
      <point x="331" y="28" type="curve" smooth="yes"/>
      <point x="331" y="89"/>
      <point x="304" y="127"/>
      <point x="262" y="127" type="curve" smooth="yes"/>
      <point x="226" y="127"/>
      <point x="199" y="99"/>
      <point x="199" y="64" type="curve" smooth="yes"/>
      <point x="199" y="40"/>
      <point x="213" y="2"/>
    </contour>
  </outline>
</glyph>
<glyph name="less" format="2">
  <advance width="525"/>
  <unicode hex="003C"/>
  <outline>
    <contour>
      <point x="444" y="485" type="line" smooth="yes"/>
      <point x="454" y="492"/>
      <point x="468" y="500"/>
      <point x="468" y="521" type="curve" smooth="yes"/>
      <point x="468" y="546"/>
      <point x="446" y="559"/>
      <point x="431" y="559" type="curve" smooth="yes"/>
      <point x="429" y="559"/>
      <point x="418" y="559"/>
      <point x="402" y="548" type="curve" smooth="yes"/>
      <point x="79" y="340" type="line" smooth="yes"/>
      <point x="67" y="332"/>
      <point x="56" y="325"/>
      <point x="56" y="305" type="curve" smooth="yes"/>
      <point x="56" y="285"/>
      <point x="70" y="276"/>
      <point x="78" y="271" type="curve" smooth="yes"/>
      <point x="414" y="56" type="line"/>
      <point x="421" y="53"/>
      <point x="429" y="52"/>
      <point x="430" y="52" type="curve" smooth="yes"/>
      <point x="448" y="52"/>
      <point x="468" y="67"/>
      <point x="468" y="90" type="curve" smooth="yes"/>
      <point x="468" y="110"/>
      <point x="455" y="119"/>
      <point x="445" y="126" type="curve" smooth="yes"/>
      <point x="163" y="305" type="line"/>
    </contour>
  </outline>
</glyph>
<glyph name="greater" format="2">
  <advance width="525"/>
  <unicode hex="003E"/>
  <outline>
    <contour>
      <point x="445" y="271" type="line" smooth="yes"/>
      <point x="457" y="279"/>
      <point x="468" y="286"/>
      <point x="468" y="306" type="curve" smooth="yes"/>
      <point x="468" y="326"/>
      <point x="454" y="335"/>
      <point x="446" y="340" type="curve" smooth="yes"/>
      <point x="110" y="555" type="line"/>
      <point x="103" y="558"/>
      <point x="95" y="559"/>
      <point x="94" y="559" type="curve" smooth="yes"/>
      <point x="76" y="559"/>
      <point x="56" y="544"/>
      <point x="56" y="521" type="curve" smooth="yes"/>
      <point x="56" y="501"/>
      <point x="69" y="492"/>
      <point x="79" y="485" type="curve" smooth="yes"/>
      <point x="361" y="306" type="line"/>
      <point x="68" y="118" type="line"/>
      <point x="64" y="115"/>
      <point x="56" y="109"/>
      <point x="56" y="90" type="curve" smooth="yes"/>
      <point x="56" y="65"/>
      <point x="78" y="52"/>
      <point x="93" y="52" type="curve" smooth="yes"/>
      <point x="98" y="52"/>
      <point x="103" y="54"/>
      <point x="109" y="56" type="curve"/>
    </contour>
  </outline>
</glyph>
<glyph name="D" format="2">
  <advance width="525"/>
  <unicode hex="0044"/>
  <outline>
    <contour>
      <point x="59" y="611" type="line" smooth="yes"/>
      <point x="44" y="611"/>
      <point x="16" y="611"/>
      <point x="16" y="579" type="curve" smooth="yes"/>
      <point x="16" y="546"/>
      <point x="43" y="546"/>
      <point x="59" y="546" type="curve" smooth="yes"/>
      <point x="80" y="546" type="line"/>
      <point x="80" y="65" type="line"/>
      <point x="59" y="65" type="line" smooth="yes"/>
      <point x="44" y="65"/>
      <point x="16" y="65"/>
      <point x="16" y="33" type="curve" smooth="yes"/>
      <point x="16" y="0"/>
      <point x="43" y="0"/>
      <point x="59" y="0" type="curve" smooth="yes"/>
      <point x="266" y="0" type="line" smooth="yes"/>
      <point x="397" y="0"/>
      <point x="485" y="141"/>
      <point x="485" y="301" type="curve" smooth="yes"/>
      <point x="485" y="461"/>
      <point x="399" y="611"/>
      <point x="266" y="611" type="curve" smooth="yes"/>
    </contour>
    <contour>
      <point x="154" y="65" type="line"/>
      <point x="154" y="546" type="line"/>
      <point x="245" y="546" type="line" smooth="yes"/>
      <point x="359" y="546"/>
      <point x="411" y="412"/>
      <point x="411" y="301" type="curve" smooth="yes"/>
      <point x="411" y="185"/>
      <point x="353" y="65"/>
      <point x="246" y="65" type="curve" smooth="yes"/>
    </contour>
  </outline>
</glyph>
<glyph name="E" format="2">
  <advance width="525"/>
  <unicode hex="0045"/>
  <outline>
    <contour>
      <point x="168" y="284" type="line"/>
      <point x="294" y="284" type="line"/>
      <point x="294" y="246"/>
      <point x="294" y="227"/>
      <point x="331" y="227" type="curve" smooth="yes"/>
      <point x="368" y="227"/>
      <point x="368" y="250"/>
      <point x="368" y="269" type="curve" smooth="yes"/>
      <point x="368" y="364" type="line" smooth="yes"/>
      <point x="368" y="383"/>
      <point x="368" y="406"/>
      <point x="331" y="406" type="curve" smooth="yes"/>
      <point x="294" y="406"/>
      <point x="294" y="387"/>
      <point x="294" y="349" type="curve"/>
      <point x="168" y="349" type="line"/>
      <point x="168" y="546" type="line"/>
      <point x="406" y="546" type="line"/>
      <point x="406" y="492" type="line" smooth="yes"/>
      <point x="406" y="473"/>
      <point x="406" y="450"/>
      <point x="443" y="450" type="curve" smooth="yes"/>
      <point x="480" y="450"/>
      <point x="480" y="473"/>
      <point x="480" y="492" type="curve" smooth="yes"/>
      <point x="480" y="569" type="line" smooth="yes"/>
      <point x="480" y="602"/>
      <point x="472" y="611"/>
      <point x="438" y="611" type="curve" smooth="yes"/>
      <point x="65" y="611" type="line" smooth="yes"/>
      <point x="50" y="611"/>
      <point x="22" y="611"/>
      <point x="22" y="579" type="curve" smooth="yes"/>
      <point x="22" y="546"/>
      <point x="49" y="546"/>
      <point x="65" y="546" type="curve" smooth="yes"/>
      <point x="94" y="546" type="line"/>
      <point x="94" y="65" type="line"/>
      <point x="65" y="65" type="line" smooth="yes"/>
      <point x="50" y="65"/>
      <point x="22" y="65"/>
      <point x="22" y="33" type="curve" smooth="yes"/>
      <point x="22" y="0"/>
      <point x="49" y="0"/>
      <point x="65" y="0" type="curve" smooth="yes"/>
      <point x="460" y="0" type="line" smooth="yes"/>
      <point x="493" y="0"/>
      <point x="502" y="8"/>
      <point x="502" y="42" type="curve" smooth="yes"/>
      <point x="502" y="135" type="line" smooth="yes"/>
      <point x="502" y="154"/>
      <point x="502" y="177"/>
      <point x="465" y="177" type="curve" smooth="yes"/>
      <point x="428" y="177"/>
      <point x="428" y="154"/>
      <point x="428" y="135" type="curve" smooth="yes"/>
      <point x="428" y="65" type="line"/>
      <point x="168" y="65" type="line"/>
    </contour>
  </outline>
</glyph>
<glyph name="L" format="2">
  <advance width="525"/>
  <unicode hex="004C"/>
  <outline>
    <contour>
      <point x="180" y="546" type="line"/>
      <point x="235" y="546" type="line" smooth="yes"/>
      <point x="250" y="546"/>
      <point x="278" y="546"/>
      <point x="278" y="578" type="curve" smooth="yes"/>
      <point x="278" y="611"/>
      <point x="251" y="611"/>
      <point x="235" y="611" type="curve" smooth="yes"/>
      <point x="70" y="611" type="line" smooth="yes"/>
      <point x="55" y="611"/>
      <point x="28" y="611"/>
      <point x="28" y="579" type="curve" smooth="yes"/>
      <point x="28" y="546"/>
      <point x="54" y="546"/>
      <point x="70" y="546" type="curve" smooth="yes"/>
      <point x="106" y="546" type="line"/>
      <point x="106" y="65" type="line"/>
      <point x="70" y="65" type="line" smooth="yes"/>
      <point x="55" y="65"/>
      <point x="28" y="65"/>
      <point x="28" y="33" type="curve" smooth="yes"/>
      <point x="28" y="0"/>
      <point x="54" y="0"/>
      <point x="70" y="0" type="curve" smooth="yes"/>
      <point x="446" y="0" type="line" smooth="yes"/>
      <point x="479" y="0"/>
      <point x="488" y="8"/>
      <point x="488" y="42" type="curve" smooth="yes"/>
      <point x="488" y="134" type="line" smooth="yes"/>
      <point x="488" y="153"/>
      <point x="488" y="177"/>
      <point x="451" y="177" type="curve" smooth="yes"/>
      <point x="414" y="177"/>
      <point x="414" y="153"/>
      <point x="414" y="134" type="curve" smooth="yes"/>
      <point x="414" y="65" type="line"/>
      <point x="180" y="65" type="line"/>
    </contour>
  </outline>
</glyph>
<glyph name="M" format="2">
  <advance width="525"/>
  <unicode hex="004D"/>
  <outline>
    <contour>
      <point x="295" y="393" type="line" smooth="yes"/>
      <point x="282" y="353"/>
      <point x="269" y="312"/>
      <point x="263" y="281" type="curve"/>
      <point x="262" y="281" type="line"/>
      <point x="256" y="310"/>
      <point x="246" y="341"/>
      <point x="235" y="374" type="curve" smooth="yes"/>
      <point x="170" y="573" type="line" smooth="yes"/>
      <point x="160" y="602"/>
      <point x="151" y="611"/>
      <point x="115" y="611" type="curve" smooth="yes"/>
      <point x="57" y="611" type="line" smooth="yes"/>
      <point x="42" y="611"/>
      <point x="14" y="611"/>
      <point x="14" y="579" type="curve" smooth="yes"/>
      <point x="14" y="546"/>
      <point x="38" y="546"/>
      <point x="68" y="546" type="curve"/>
      <point x="68" y="65" type="line"/>
      <point x="38" y="65"/>
      <point x="14" y="65"/>
      <point x="14" y="32" type="curve" smooth="yes"/>
      <point x="14" y="0"/>
      <point x="42" y="0"/>
      <point x="57" y="0" type="curve" smooth="yes"/>
      <point x="139" y="0" type="line" smooth="yes"/>
      <point x="154" y="0"/>
      <point x="182" y="0"/>
      <point x="182" y="32" type="curve" smooth="yes"/>
      <point x="182" y="65"/>
      <point x="158" y="65"/>
      <point x="128" y="65" type="curve"/>
      <point x="128" y="532" type="line"/>
      <point x="129" y="532" type="line"/>
      <point x="134" y="508"/>
      <point x="143" y="479"/>
      <point x="152" y="450" type="curve" smooth="yes"/>
      <point x="220" y="242" type="line" smooth="yes"/>
      <point x="224" y="230"/>
      <point x="232" y="204"/>
      <point x="262" y="204" type="curve" smooth="yes"/>
      <point x="292" y="204"/>
      <point x="300" y="230"/>
      <point x="304" y="242" type="curve" smooth="yes"/>
      <point x="367" y="435" type="line"/>
      <point x="367" y="436"/>
      <point x="390" y="508"/>
      <point x="395" y="532" type="curve"/>
      <point x="396" y="532" type="line"/>
      <point x="396" y="65" type="line"/>
      <point x="366" y="65"/>
      <point x="342" y="65"/>
      <point x="342" y="32" type="curve" smooth="yes"/>
      <point x="342" y="0"/>
      <point x="370" y="0"/>
      <point x="385" y="0" type="curve" smooth="yes"/>
      <point x="467" y="0" type="line" smooth="yes"/>
      <point x="482" y="0"/>
      <point x="510" y="0"/>
      <point x="510" y="32" type="curve" smooth="yes"/>
      <point x="510" y="65"/>
      <point x="486" y="65"/>
      <point x="456" y="65" type="curve"/>
      <point x="456" y="546" type="line"/>
      <point x="486" y="546"/>
      <point x="510" y="546"/>
      <point x="510" y="579" type="curve" smooth="yes"/>
      <point x="510" y="611"/>
      <point x="482" y="611"/>
      <point x="467" y="611" type="curve" smooth="yes"/>
      <point x="409" y="611" type="line" smooth="yes"/>
      <point x="374" y="611"/>
      <point x="364" y="603"/>
      <point x="354" y="573" type="curve" smooth="yes"/>
    </contour>
  </outline>
</glyph>
<glyph name="N" format="2">
  <advance width="525"/>
  <unicode hex="004E"/>
  <outline>
    <contour>
      <point x="195" y="573" type="line" smooth="yes"/>
      <point x="181" y="611"/>
      <point x="160" y="611"/>
      <point x="138" y="611" type="curve" smooth="yes"/>
      <point x="67" y="611" type="line" smooth="yes"/>
      <point x="52" y="611"/>
      <point x="25" y="611"/>
      <point x="25" y="579" type="curve" smooth="yes"/>
      <point x="25" y="546"/>
      <point x="51" y="546"/>
      <point x="67" y="546" type="curve" smooth="yes"/>
      <point x="91" y="546" type="line"/>
      <point x="91" y="65" type="line"/>
      <point x="67" y="65" type="line" smooth="yes"/>
      <point x="52" y="65"/>
      <point x="25" y="65"/>
      <point x="25" y="33" type="curve" smooth="yes"/>
      <point x="25" y="0"/>
      <point x="51" y="0"/>
      <point x="67" y="0" type="curve" smooth="yes"/>
      <point x="175" y="0" type="line" smooth="yes"/>
      <point x="190" y="0"/>
      <point x="217" y="0"/>
      <point x="217" y="32" type="curve" smooth="yes"/>
      <point x="217" y="65"/>
      <point x="191" y="65"/>
      <point x="175" y="65" type="curve" smooth="yes"/>
      <point x="151" y="65" type="line"/>
      <point x="151" y="534" type="line"/>
      <point x="152" y="534" type="line"/>
      <point x="166" y="489"/>
      <point x="183" y="441"/>
      <point x="200" y="394" type="curve" smooth="yes"/>
      <point x="329" y="38" type="line" smooth="yes"/>
      <point x="343" y="0"/>
      <point x="364" y="0"/>
      <point x="388" y="0" type="curve" smooth="yes"/>
      <point x="415" y="0"/>
      <point x="433" y="1"/>
      <point x="433" y="42" type="curve" smooth="yes"/>
      <point x="433" y="546" type="line"/>
      <point x="457" y="546" type="line" smooth="yes"/>
      <point x="472" y="546"/>
      <point x="499" y="546"/>
      <point x="499" y="578" type="curve" smooth="yes"/>
      <point x="499" y="611"/>
      <point x="473" y="611"/>
      <point x="457" y="611" type="curve" smooth="yes"/>
      <point x="349" y="611" type="line" smooth="yes"/>
      <point x="334" y="611"/>
      <point x="307" y="611"/>
      <point x="307" y="579" type="curve" smooth="yes"/>
      <point x="307" y="546"/>
      <point x="333" y="546"/>
      <point x="349" y="546" type="curve" smooth="yes"/>
      <point x="373" y="546" type="line"/>
      <point x="373" y="77" type="line"/>
      <point x="372" y="77" type="line"/>
      <point x="358" y="122"/>
      <point x="341" y="170"/>
      <point x="324" y="217" type="curve" smooth="yes"/>
    </contour>
  </outline>
</glyph>
<glyph name="O" format="2">
  <advance width="525"/>
  <unicode hex="004F"/>
  <outline>
    <contour>
      <point x="468" y="305" type="curve" smooth="yes"/>
      <point x="468" y="594"/>
      <point x="447" y="622"/>
      <point x="262" y="622" type="curve" smooth="yes"/>
      <point x="77" y="622"/>
      <point x="56" y="595"/>
      <point x="56" y="305" type="curve" smooth="yes"/>
      <point x="56" y="16"/>
      <point x="77" y="-11"/>
      <point x="262" y="-11" type="curve" smooth="yes"/>
      <point x="446" y="-11"/>
      <point x="468" y="16"/>
    </contour>
    <contour>
      <point x="262" y="54" type="curve" smooth="yes"/>
      <point x="176" y="54"/>
      <point x="153" y="76"/>
      <point x="142" y="122" type="curve" smooth="yes"/>
      <point x="130" y="174"/>
      <point x="130" y="254"/>
      <point x="130" y="314" type="curve" smooth="yes"/>
      <point x="130" y="377"/>
      <point x="130" y="449"/>
      <point x="142" y="494" type="curve" smooth="yes"/>
      <point x="155" y="545"/>
      <point x="184" y="557"/>
      <point x="262" y="557" type="curve" smooth="yes"/>
      <point x="339" y="557"/>
      <point x="370" y="545"/>
      <point x="383" y="491" type="curve" smooth="yes"/>
      <point x="394" y="445"/>
      <point x="394" y="374"/>
      <point x="394" y="314" type="curve" smooth="yes"/>
      <point x="394" y="246"/>
      <point x="394" y="177"/>
      <point x="382" y="124" type="curve" smooth="yes"/>
      <point x="372" y="76"/>
      <point x="348" y="54"/>
    </contour>
  </outline>
</glyph>
<glyph name="Q" format="2">
  <advance width="525"/>
  <unicode hex="0051"/>
  <outline>
    <contour>
      <point x="421" y="-139" type="line" smooth="yes"/>
      <point x="436" y="-139"/>
      <point x="454" y="-139"/>
      <point x="454" y="-118" type="curve" smooth="yes"/>
      <point x="454" y="-112"/>
      <point x="452" y="-109"/>
      <point x="425" y="-57" type="curve" smooth="yes"/>
      <point x="392" y="4" type="line"/>
      <point x="437" y="24"/>
      <point x="454" y="62"/>
      <point x="462" y="138" type="curve" smooth="yes"/>
      <point x="468" y="192"/>
      <point x="468" y="259"/>
      <point x="468" y="305" type="curve" smooth="yes"/>
      <point x="468" y="594"/>
      <point x="447" y="622"/>
      <point x="262" y="622" type="curve" smooth="yes"/>
      <point x="77" y="622"/>
      <point x="56" y="595"/>
      <point x="56" y="305" type="curve" smooth="yes"/>
      <point x="56" y="16"/>
      <point x="77" y="-11"/>
      <point x="262" y="-11" type="curve" smooth="yes"/>
      <point x="279" y="-11"/>
      <point x="300" y="-11"/>
      <point x="313" y="-10" type="curve"/>
      <point x="320" y="-23"/>
      <point x="370" y="-122"/>
      <point x="374" y="-128" type="curve" smooth="yes"/>
      <point x="382" y="-139"/>
      <point x="395" y="-139"/>
      <point x="409" y="-139" type="curve" smooth="yes"/>
    </contour>
    <contour>
      <point x="255" y="54" type="line" smooth="yes"/>
      <point x="159" y="54"/>
      <point x="146" y="88"/>
      <point x="137" y="145" type="curve" smooth="yes"/>
      <point x="130" y="192"/>
      <point x="130" y="259"/>
      <point x="130" y="305" type="curve" smooth="yes"/>
      <point x="130" y="362"/>
      <point x="130" y="433"/>
      <point x="139" y="481" type="curve" smooth="yes"/>
      <point x="151" y="538"/>
      <point x="175" y="557"/>
      <point x="262" y="557" type="curve" smooth="yes"/>
      <point x="351" y="557"/>
      <point x="374" y="536"/>
      <point x="385" y="479" type="curve" smooth="yes"/>
      <point x="394" y="431"/>
      <point x="394" y="357"/>
      <point x="394" y="306" type="curve" smooth="yes"/>
      <point x="394" y="160"/>
      <point x="388" y="98"/>
      <point x="355" y="73" type="curve"/>
      <point x="310" y="160" type="line"/>
      <point x="303" y="171"/>
      <point x="302" y="171"/>
      <point x="281" y="171" type="curve" smooth="yes"/>
      <point x="267" y="171" type="line" smooth="yes"/>
      <point x="253" y="171"/>
      <point x="234" y="171"/>
      <point x="234" y="150" type="curve" smooth="yes"/>
      <point x="234" y="146"/>
      <point x="234" y="144"/>
      <point x="280" y="54" type="curve"/>
    </contour>
  </outline>
</glyph>
<glyph name="R" format="2">
  <advance width="525"/>
  <unicode hex="0052"/>
  <outline>
    <contour>
      <point x="351" y="303" type="curve"/>
      <point x="403" y="336"/>
      <point x="433" y="387"/>
      <point x="433" y="442" type="curve" smooth="yes"/>
      <point x="433" y="528"/>
      <point x="356" y="611"/>
      <point x="239" y="611" type="curve" smooth="yes"/>
      <point x="60" y="611" type="line" smooth="yes"/>
      <point x="45" y="611"/>
      <point x="18" y="611"/>
      <point x="18" y="579" type="curve" smooth="yes"/>
      <point x="18" y="546"/>
      <point x="44" y="546"/>
      <point x="60" y="546" type="curve" smooth="yes"/>
      <point x="84" y="546" type="line"/>
      <point x="84" y="65" type="line"/>
      <point x="60" y="65" type="line" smooth="yes"/>
      <point x="45" y="65"/>
      <point x="18" y="65"/>
      <point x="18" y="33" type="curve" smooth="yes"/>
      <point x="18" y="0"/>
      <point x="44" y="0"/>
      <point x="60" y="0" type="curve" smooth="yes"/>
      <point x="182" y="0" type="line" smooth="yes"/>
      <point x="197" y="0"/>
      <point x="224" y="0"/>
      <point x="224" y="32" type="curve" smooth="yes"/>
      <point x="224" y="65"/>
      <point x="198" y="65"/>
      <point x="182" y="65" type="curve" smooth="yes"/>
      <point x="158" y="65" type="line"/>
      <point x="158" y="273" type="line"/>
      <point x="233" y="273" type="line" smooth="yes"/>
      <point x="257" y="273"/>
      <point x="281" y="272"/>
      <point x="310" y="246" type="curve" smooth="yes"/>
      <point x="332" y="227"/>
      <point x="332" y="204"/>
      <point x="332" y="163" type="curve" smooth="yes"/>
      <point x="332" y="102"/>
      <point x="332" y="69"/>
      <point x="350" y="37" type="curve" smooth="yes"/>
      <point x="369" y="5"/>
      <point x="398" y="-11"/>
      <point x="433" y="-11" type="curve" smooth="yes"/>
      <point x="495" y="-11"/>
      <point x="522" y="52"/>
      <point x="522" y="95" type="curve" smooth="yes"/>
      <point x="522" y="129"/>
      <point x="494" y="129"/>
      <point x="485" y="129" type="curve" smooth="yes"/>
      <point x="475" y="129"/>
      <point x="449" y="129"/>
      <point x="448" y="96" type="curve" smooth="yes"/>
      <point x="448" y="90"/>
      <point x="446" y="54"/>
      <point x="431" y="54" type="curve" smooth="yes"/>
      <point x="406" y="54"/>
      <point x="406" y="101"/>
      <point x="406" y="150" type="curve" smooth="yes"/>
      <point x="406" y="214"/>
      <point x="406" y="220"/>
      <point x="397" y="244" type="curve" smooth="yes"/>
      <point x="384" y="277"/>
      <point x="355" y="300"/>
    </contour>
    <contour>
      <point x="227" y="338" type="curve" smooth="yes"/>
      <point x="158" y="338" type="line"/>
      <point x="158" y="546" type="line"/>
      <point x="227" y="546" type="line" smooth="yes"/>
      <point x="319" y="546"/>
      <point x="359" y="487"/>
      <point x="359" y="442" type="curve" smooth="yes"/>
      <point x="359" y="398"/>
      <point x="320" y="338"/>
    </contour>
  </outline>
</glyph>
<glyph name="X" format="2">
  <advance width="525"/>
  <unicode hex="0058"/>
  <outline>
    <contour>
      <point x="294" y="326" type="line"/>
      <point x="402" y="546" type="line"/>
      <point x="424" y="546" type="line" smooth="yes"/>
      <point x="438" y="546"/>
      <point x="466" y="546"/>
      <point x="466" y="578" type="curve" smooth="yes"/>
      <point x="466" y="611"/>
      <point x="439" y="611"/>
      <point x="424" y="611" type="curve" smooth="yes"/>
      <point x="317" y="611" type="line" smooth="yes"/>
      <point x="302" y="611"/>
      <point x="275" y="611"/>
      <point x="275" y="579" type="curve" smooth="yes"/>
      <point x="275" y="546"/>
      <point x="300" y="546"/>
      <point x="321" y="546" type="curve"/>
      <point x="257" y="412" type="line"/>
      <point x="187" y="546" type="line"/>
      <point x="204" y="546"/>
      <point x="231" y="546"/>
      <point x="231" y="579" type="curve" smooth="yes"/>
      <point x="231" y="611"/>
      <point x="203" y="611"/>
      <point x="188" y="611" type="curve" smooth="yes"/>
      <point x="82" y="611" type="line" smooth="yes"/>
      <point x="67" y="611"/>
      <point x="39" y="611"/>
      <point x="39" y="579" type="curve" smooth="yes"/>
      <point x="39" y="546"/>
      <point x="66" y="546"/>
      <point x="82" y="546" type="curve" smooth="yes"/>
      <point x="104" y="546" type="line"/>
      <point x="220" y="326" type="line"/>
      <point x="92" y="65" type="line"/>
      <point x="70" y="65" type="line" smooth="yes"/>
      <point x="55" y="65"/>
      <point x="28" y="65"/>
      <point x="28" y="33" type="curve" smooth="yes"/>
      <point x="28" y="0"/>
      <point x="54" y="0"/>
      <point x="70" y="0" type="curve" smooth="yes"/>
      <point x="177" y="0" type="line" smooth="yes"/>
      <point x="191" y="0"/>
      <point x="219" y="0"/>
      <point x="219" y="32" type="curve" smooth="yes"/>
      <point x="219" y="65"/>
      <point x="194" y="65"/>
      <point x="172" y="65" type="curve"/>
      <point x="257" y="249" type="line"/>
      <point x="348" y="65" type="line"/>
      <point x="330" y="65"/>
      <point x="303" y="65"/>
      <point x="303" y="32" type="curve" smooth="yes"/>
      <point x="303" y="0"/>
      <point x="332" y="0"/>
      <point x="346" y="0" type="curve" smooth="yes"/>
      <point x="452" y="0" type="line" smooth="yes"/>
      <point x="467" y="0"/>
      <point x="495" y="0"/>
      <point x="495" y="32" type="curve" smooth="yes"/>
      <point x="495" y="65"/>
      <point x="468" y="65"/>
      <point x="452" y="65" type="curve" smooth="yes"/>
      <point x="430" y="65" type="line"/>
    </contour>
  </outline>
</glyph>
<glyph name="Y" format="2">
  <advance width="525"/>
  <unicode hex="0059"/>
  <outline>
    <contour>
      <point x="442" y="546" type="line"/>
      <point x="462" y="546" type="line" smooth="yes"/>
      <point x="476" y="546"/>
      <point x="505" y="546"/>
      <point x="505" y="578" type="curve" smooth="yes"/>
      <point x="505" y="611"/>
      <point x="477" y="611"/>
      <point x="462" y="611" type="curve" smooth="yes"/>
      <point x="356" y="611" type="line" smooth="yes"/>
      <point x="341" y="611"/>
      <point x="313" y="611"/>
      <point x="313" y="579" type="curve" smooth="yes"/>
      <point x="313" y="546"/>
      <point x="339" y="546"/>
      <point x="360" y="546" type="curve"/>
      <point x="331" y="484"/>
      <point x="271" y="360"/>
      <point x="263" y="320" type="curve"/>
      <point x="261" y="320" type="line"/>
      <point x="253" y="360"/>
      <point x="193" y="485"/>
      <point x="164" y="546" type="curve"/>
      <point x="185" y="546"/>
      <point x="211" y="546"/>
      <point x="211" y="579" type="curve" smooth="yes"/>
      <point x="211" y="611"/>
      <point x="183" y="611"/>
      <point x="168" y="611" type="curve" smooth="yes"/>
      <point x="62" y="611" type="line" smooth="yes"/>
      <point x="48" y="611"/>
      <point x="19" y="611"/>
      <point x="19" y="579" type="curve" smooth="yes"/>
      <point x="19" y="546"/>
      <point x="47" y="546"/>
      <point x="62" y="546" type="curve" smooth="yes"/>
      <point x="82" y="546" type="line"/>
      <point x="225" y="244" type="line"/>
      <point x="225" y="65" type="line"/>
      <point x="201" y="65" type="line" smooth="yes"/>
      <point x="185" y="65"/>
      <point x="159" y="65"/>
      <point x="159" y="32" type="curve" smooth="yes"/>
      <point x="159" y="0"/>
      <point x="186" y="0"/>
      <point x="201" y="0" type="curve" smooth="yes"/>
      <point x="323" y="0" type="line" smooth="yes"/>
      <point x="338" y="0"/>
      <point x="365" y="0"/>
      <point x="365" y="32" type="curve" smooth="yes"/>
      <point x="365" y="65"/>
      <point x="339" y="65"/>
      <point x="323" y="65" type="curve" smooth="yes"/>
      <point x="299" y="65" type="line"/>
      <point x="299" y="244" type="line"/>
    </contour>
  </outline>
</glyph>
<glyph name="bracketright" format="2">
  <advance width="525"/>
  <unicode hex="005D"/>
  <outline>
    <contour>
      <point x="306" y="652" type="line" smooth="yes"/>
      <point x="306" y="685"/>
      <point x="298" y="694"/>
      <point x="264" y="694" type="curve" smooth="yes"/>
      <point x="82" y="694" type="line" smooth="yes"/>
      <point x="68" y="694"/>
      <point x="40" y="694"/>
      <point x="40" y="662" type="curve" smooth="yes"/>
      <point x="40" y="629"/>
      <point x="67" y="629"/>
      <point x="82" y="629" type="curve" smooth="yes"/>
      <point x="232" y="629" type="line"/>
      <point x="232" y="-18" type="line"/>
      <point x="82" y="-18" type="line" smooth="yes"/>
      <point x="68" y="-18"/>
      <point x="40" y="-18"/>
      <point x="40" y="-50" type="curve" smooth="yes"/>
      <point x="40" y="-83"/>
      <point x="67" y="-83"/>
      <point x="82" y="-83" type="curve" smooth="yes"/>
      <point x="264" y="-83" type="line" smooth="yes"/>
      <point x="297" y="-83"/>
      <point x="306" y="-75"/>
      <point x="306" y="-41" type="curve" smooth="yes"/>
    </contour>
  </outline>
</glyph>
<glyph name="grave" format="2">
  <advance width="525"/>
  <unicode hex="0060"/>
  <outline>
    <contour>
      <point x="275" y="485" type="line"/>
      <point x="281" y="482"/>
      <point x="289" y="480"/>
      <point x="295" y="480" type="curve" smooth="yes"/>
      <point x="316" y="480"/>
      <point x="331" y="502"/>
      <point x="331" y="522" type="curve" smooth="yes"/>
      <point x="331" y="541"/>
      <point x="317" y="549"/>
      <point x="304" y="554" type="curve" smooth="yes"/>
      <point x="176" y="605" type="line" smooth="yes"/>
      <point x="167" y="609"/>
      <point x="161" y="611"/>
      <point x="154" y="611" type="curve" smooth="yes"/>
      <point x="130" y="611"/>
      <point x="117" y="591"/>
      <point x="117" y="574" type="curve" smooth="yes"/>
      <point x="117" y="550"/>
      <point x="134" y="543"/>
      <point x="148" y="537" type="curve" smooth="yes"/>
    </contour>
  </outline>
</glyph>
<glyph name="b" format="2">
  <advance width="525"/>
  <unicode hex="0062"/>
  <outline>
    <contour>
      <point x="168" y="569" type="line" smooth="yes"/>
      <point x="168" y="602"/>
      <point x="160" y="611"/>
      <point x="126" y="611" type="curve" smooth="yes"/>
      <point x="50" y="611" type="line" smooth="yes"/>
      <point x="36" y="611"/>
      <point x="8" y="611"/>
      <point x="8" y="579" type="curve" smooth="yes"/>
      <point x="8" y="546"/>
      <point x="35" y="546"/>
      <point x="50" y="546" type="curve" smooth="yes"/>
      <point x="94" y="546" type="line"/>
      <point x="94" y="43" type="line" smooth="yes"/>
      <point x="94" y="23"/>
      <point x="94" y="0"/>
      <point x="131" y="0" type="curve" smooth="yes"/>
      <point x="168" y="0"/>
      <point x="168" y="23"/>
      <point x="168" y="43" type="curve"/>
      <point x="199" y="13"/>
      <point x="238" y="-5"/>
      <point x="282" y="-5" type="curve" smooth="yes"/>
      <point x="393" y="-5"/>
      <point x="490" y="90"/>
      <point x="490" y="216" type="curve" smooth="yes"/>
      <point x="490" y="335"/>
      <point x="404" y="436"/>
      <point x="292" y="436" type="curve" smooth="yes"/>
      <point x="245" y="436"/>
      <point x="203" y="419"/>
      <point x="168" y="390" type="curve"/>
    </contour>
    <contour>
      <point x="168" y="263" type="line" smooth="yes"/>
      <point x="168" y="322"/>
      <point x="227" y="371"/>
      <point x="288" y="371" type="curve" smooth="yes"/>
      <point x="357" y="371"/>
      <point x="416" y="303"/>
      <point x="416" y="216" type="curve" smooth="yes"/>
      <point x="416" y="127"/>
      <point x="351" y="60"/>
      <point x="278" y="60" type="curve" smooth="yes"/>
      <point x="207" y="60"/>
      <point x="168" y="141"/>
      <point x="168" y="193" type="curve" smooth="yes"/>
    </contour>
  </outline>
</glyph>
<glyph name="o" format="2">
  <advance width="525"/>
  <unicode hex="006F"/>
  <outline>
    <contour>
      <point x="469" y="216" type="curve" smooth="yes"/>
      <point x="469" y="340"/>
      <point x="375" y="439"/>
      <point x="262" y="439" type="curve" smooth="yes"/>
      <point x="149" y="439"/>
      <point x="55" y="340"/>
      <point x="55" y="216" type="curve" smooth="yes"/>
      <point x="55" y="92"/>
      <point x="150" y="-5"/>
      <point x="262" y="-5" type="curve" smooth="yes"/>
      <point x="374" y="-5"/>
      <point x="469" y="92"/>
    </contour>
    <contour>
      <point x="262" y="60" type="curve" smooth="yes"/>
      <point x="189" y="60"/>
      <point x="129" y="133"/>
      <point x="129" y="223" type="curve" smooth="yes"/>
      <point x="129" y="312"/>
      <point x="193" y="374"/>
      <point x="262" y="374" type="curve" smooth="yes"/>
      <point x="332" y="374"/>
      <point x="395" y="312"/>
      <point x="395" y="223" type="curve" smooth="yes"/>
      <point x="395" y="133"/>
      <point x="335" y="60"/>
    </contour>
  </outline>
</glyph>
<glyph name="r" format="2">
  <advance width="525"/>
  <unicode hex="0072"/>
  <outline>
    <contour>
      <point x="224" y="184" type="line" smooth="yes"/>
      <point x="224" y="285"/>
      <point x="291" y="371"/>
      <point x="399" y="371" type="curve"/>
      <point x="402" y="334"/>
      <point x="430" y="327"/>
      <point x="443" y="327" type="curve" smooth="yes"/>
      <point x="466" y="327"/>
      <point x="487" y="344"/>
      <point x="487" y="372" type="curve" smooth="yes"/>
      <point x="487" y="391"/>
      <point x="475" y="436"/>
      <point x="392" y="436" type="curve" smooth="yes"/>
      <point x="335" y="436"/>
      <point x="272" y="412"/>
      <point x="224" y="358" type="curve"/>
      <point x="224" y="389" type="line" smooth="yes"/>
      <point x="224" y="422"/>
      <point x="216" y="431"/>
      <point x="182" y="431" type="curve" smooth="yes"/>
      <point x="70" y="431" type="line" smooth="yes"/>
      <point x="55" y="431"/>
      <point x="27" y="431"/>
      <point x="27" y="399" type="curve" smooth="yes"/>
      <point x="27" y="366"/>
      <point x="54" y="366"/>
      <point x="70" y="366" type="curve" smooth="yes"/>
      <point x="150" y="366" type="line"/>
      <point x="150" y="65" type="line"/>
      <point x="70" y="65" type="line" smooth="yes"/>
      <point x="55" y="65"/>
      <point x="27" y="65"/>
      <point x="27" y="33" type="curve" smooth="yes"/>
      <point x="27" y="0"/>
      <point x="54" y="0"/>
      <point x="70" y="0" type="curve" smooth="yes"/>
      <point x="335" y="0" type="line" smooth="yes"/>
      <point x="349" y="0"/>
      <point x="378" y="0"/>
      <point x="378" y="32" type="curve" smooth="yes"/>
      <point x="378" y="65"/>
      <point x="350" y="65"/>
      <point x="335" y="65" type="curve" smooth="yes"/>
      <point x="224" y="65" type="line"/>
    </contour>
  </outline>
</glyph>
<glyph name="u" format="2">
  <advance width="525"/>
  <unicode hex="0075"/>
  <outline>
    <contour>
      <point x="430" y="389" type="line" smooth="yes"/>
      <point x="430" y="422"/>
      <point x="422" y="431"/>
      <point x="388" y="431" type="curve" smooth="yes"/>
      <point x="312" y="431" type="line" smooth="yes"/>
      <point x="298" y="431"/>
      <point x="270" y="431"/>
      <point x="270" y="399" type="curve" smooth="yes"/>
      <point x="270" y="366"/>
      <point x="297" y="366"/>
      <point x="312" y="366" type="curve" smooth="yes"/>
      <point x="356" y="366" type="line"/>
      <point x="356" y="156" type="line" smooth="yes"/>
      <point x="356" y="72"/>
      <point x="279" y="60"/>
      <point x="245" y="60" type="curve" smooth="yes"/>
      <point x="168" y="60"/>
      <point x="168" y="89"/>
      <point x="168" y="120" type="curve" smooth="yes"/>
      <point x="168" y="389" type="line" smooth="yes"/>
      <point x="168" y="422"/>
      <point x="160" y="431"/>
      <point x="126" y="431" type="curve" smooth="yes"/>
      <point x="50" y="431" type="line" smooth="yes"/>
      <point x="36" y="431"/>
      <point x="8" y="431"/>
      <point x="8" y="399" type="curve" smooth="yes"/>
      <point x="8" y="366"/>
      <point x="35" y="366"/>
      <point x="50" y="366" type="curve" smooth="yes"/>
      <point x="94" y="366" type="line"/>
      <point x="94" y="115" type="line" smooth="yes"/>
      <point x="94" y="21"/>
      <point x="161" y="-5"/>
      <point x="238" y="-5" type="curve" smooth="yes"/>
      <point x="273" y="-5"/>
      <point x="313" y="0"/>
      <point x="356" y="30" type="curve"/>
      <point x="360" y="0"/>
      <point x="380" y="0"/>
      <point x="398" y="0" type="curve" smooth="yes"/>
      <point x="474" y="0" type="line" smooth="yes"/>
      <point x="488" y="0"/>
      <point x="516" y="0"/>
      <point x="516" y="32" type="curve" smooth="yes"/>
      <point x="516" y="65"/>
      <point x="489" y="65"/>
      <point x="474" y="65" type="curve" smooth="yes"/>
      <point x="430" y="65" type="line"/>
    </contour>
  </outline>
</glyph>
<glyph name="x" format="2">
  <advance width="525"/>
  <unicode hex="0078"/>
  <outline>
    <contour>
      <point x="289" y="222" type="line"/>
      <point x="398" y="366" type="line"/>
      <point x="438" y="366" type="line" smooth="yes"/>
      <point x="453" y="366"/>
      <point x="480" y="366"/>
      <point x="480" y="398" type="curve" smooth="yes"/>
      <point x="480" y="431"/>
      <point x="454" y="431"/>
      <point x="438" y="431" type="curve" smooth="yes"/>
      <point x="319" y="431" type="line" smooth="yes"/>
      <point x="304" y="431"/>
      <point x="277" y="431"/>
      <point x="277" y="399" type="curve" smooth="yes"/>
      <point x="277" y="366"/>
      <point x="301" y="366"/>
      <point x="326" y="366" type="curve"/>
      <point x="259" y="273" type="line"/>
      <point x="190" y="366" type="line"/>
      <point x="214" y="366"/>
      <point x="238" y="366"/>
      <point x="238" y="399" type="curve" smooth="yes"/>
      <point x="238" y="431"/>
      <point x="211" y="431"/>
      <point x="196" y="431" type="curve" smooth="yes"/>
      <point x="77" y="431" type="line" smooth="yes"/>
      <point x="62" y="431"/>
      <point x="35" y="431"/>
      <point x="35" y="399" type="curve" smooth="yes"/>
      <point x="35" y="366"/>
      <point x="61" y="366"/>
      <point x="77" y="366" type="curve" smooth="yes"/>
      <point x="117" y="366" type="line"/>
      <point x="230" y="222" type="line"/>
      <point x="111" y="65" type="line"/>
      <point x="71" y="65" type="line" smooth="yes"/>
      <point x="55" y="65"/>
      <point x="29" y="65"/>
      <point x="29" y="32" type="curve" smooth="yes"/>
      <point x="29" y="0"/>
      <point x="56" y="0"/>
      <point x="71" y="0" type="curve" smooth="yes"/>
      <point x="190" y="0" type="line" smooth="yes"/>
      <point x="205" y="0"/>
      <point x="232" y="0"/>
      <point x="232" y="32" type="curve" smooth="yes"/>
      <point x="232" y="65"/>
      <point x="209" y="65"/>
      <point x="180" y="65" type="curve"/>
      <point x="259" y="181" type="line"/>
      <point x="341" y="65" type="line"/>
      <point x="315" y="65"/>
      <point x="291" y="65"/>
      <point x="291" y="32" type="curve" smooth="yes"/>
      <point x="291" y="0"/>
      <point x="318" y="0"/>
      <point x="333" y="0" type="curve" smooth="yes"/>
      <point x="452" y="0" type="line" smooth="yes"/>
      <point x="467" y="0"/>
      <point x="494" y="0"/>
      <point x="494" y="32" type="curve" smooth="yes"/>
      <point x="494" y="65"/>
      <point x="468" y="65"/>
      <point x="452" y="65" type="curve" smooth="yes"/>
      <point x="412" y="65" type="line"/>
    </contour>
  </outline>
</glyph>
<glyph name="z" format="2">
  <advance width="525"/>
  <unicode hex="007A"/>
  <outline>
    <contour>
      <point x="457" y="361" type="line" smooth="yes"/>
      <point x="471" y="374"/>
      <point x="471" y="383"/>
      <point x="471" y="394" type="curve" smooth="yes"/>
      <point x="471" y="431"/>
      <point x="448" y="431"/>
      <point x="428" y="431" type="curve" smooth="yes"/>
      <point x="92" y="431" type="line" smooth="yes"/>
      <point x="58" y="431"/>
      <point x="49" y="423"/>
      <point x="49" y="388" type="curve" smooth="yes"/>
      <point x="49" y="340" type="line" smooth="yes"/>
      <point x="49" y="321"/>
      <point x="49" y="298"/>
      <point x="86" y="298" type="curve" smooth="yes"/>
      <point x="123" y="298"/>
      <point x="123" y="321"/>
      <point x="123" y="340" type="curve" smooth="yes"/>
      <point x="123" y="366" type="line"/>
      <point x="359" y="366" type="line"/>
      <point x="47" y="70" type="line" smooth="yes"/>
      <point x="33" y="57"/>
      <point x="33" y="48"/>
      <point x="33" y="37" type="curve" smooth="yes"/>
      <point x="33" y="0"/>
      <point x="56" y="0"/>
      <point x="76" y="0" type="curve" smooth="yes"/>
      <point x="433" y="0" type="line" smooth="yes"/>
      <point x="466" y="0"/>
      <point x="475" y="8"/>
      <point x="475" y="42" type="curve" smooth="yes"/>
      <point x="475" y="103" type="line" smooth="yes"/>
      <point x="475" y="122"/>
      <point x="475" y="145"/>
      <point x="438" y="145" type="curve" smooth="yes"/>
      <point x="401" y="145"/>
      <point x="401" y="122"/>
      <point x="401" y="103" type="curve" smooth="yes"/>
      <point x="401" y="65" type="line"/>
      <point x="145" y="65" type="line"/>
    </contour>
  </outline>
</glyph>
<glyph name="exclamdown" format="2">
  <advance width="525"/>
  <unicode hex="00A1"/>
  <outline>
    <contour>
      <point x="313" y="338" type="curve" smooth="yes"/>
      <point x="313" y="366"/>
      <point x="290" y="389"/>
      <point x="262" y="389" type="curve" smooth="yes"/>
      <point x="234" y="389"/>
      <point x="211" y="366"/>
      <point x="211" y="338" type="curve" smooth="yes"/>
      <point x="211" y="310"/>
      <point x="234" y="287"/>
      <point x="262" y="287" type="curve" smooth="yes"/>
      <point x="290" y="287"/>
      <point x="313" y="310"/>
    </contour>
    <contour>
      <point x="313" y="-176" type="curve" smooth="yes"/>
      <point x="313" y="-125"/>
      <point x="308" y="26"/>
      <point x="306" y="85" type="curve" smooth="yes"/>
      <point x="305" y="101"/>
      <point x="304" y="140"/>
      <point x="304" y="156" type="curve" smooth="yes"/>
      <point x="303" y="186"/>
      <point x="302" y="204"/>
      <point x="262" y="204" type="curve" smooth="yes"/>
      <point x="222" y="204"/>
      <point x="221" y="187"/>
      <point x="220" y="153" type="curve" smooth="yes"/>
      <point x="218" y="97"/>
      <point x="217" y="38"/>
      <point x="216" y="-18" type="curve" smooth="yes"/>
      <point x="215" y="-70"/>
      <point x="211" y="-124"/>
      <point x="211" y="-176" type="curve" smooth="yes"/>
      <point x="211" y="-229"/>
      <point x="254" y="-233"/>
      <point x="262" y="-233" type="curve" smooth="yes"/>
      <point x="271" y="-233"/>
      <point x="313" y="-229"/>
    </contour>
  </outline>
</glyph>
<glyph name="dieresis" format="2">
  <advance width="525"/>
  <unicode hex="00A8"/>
  <outline>
    <contour>
      <point x="211" y="561" type="curve" smooth="yes"/>
      <point x="211" y="594"/>
      <point x="184" y="612"/>
      <point x="160" y="612" type="curve" smooth="yes"/>
      <point x="129" y="612"/>
      <point x="109" y="584"/>
      <point x="109" y="561" type="curve" smooth="yes"/>
      <point x="109" y="537"/>
      <point x="129" y="510"/>
      <point x="160" y="510" type="curve" smooth="yes"/>
      <point x="183" y="510"/>
      <point x="211" y="527"/>
    </contour>
    <contour>
      <point x="415" y="561" type="curve" smooth="yes"/>
      <point x="415" y="585"/>
      <point x="395" y="612"/>
      <point x="364" y="612" type="curve" smooth="yes"/>
      <point x="341" y="612"/>
      <point x="313" y="595"/>
      <point x="313" y="561" type="curve" smooth="yes"/>
      <point x="313" y="528"/>
      <point x="340" y="510"/>
      <point x="364" y="510" type="curve" smooth="yes"/>
      <point x="395" y="510"/>
      <point x="415" y="538"/>
    </contour>
  </outline>
</glyph>
<glyph name="macron" format="2">
  <advance width="525"/>
  <unicode hex="00AF"/>
  <outline>
    <contour>
      <point x="409" y="513" type="line" smooth="yes"/>
      <point x="424" y="513"/>
      <point x="451" y="513"/>
      <point x="451" y="546" type="curve" smooth="yes"/>
      <point x="451" y="580"/>
      <point x="425" y="580"/>
      <point x="409" y="580" type="curve" smooth="yes"/>
      <point x="115" y="580" type="line" smooth="yes"/>
      <point x="100" y="580"/>
      <point x="73" y="580"/>
      <point x="73" y="547" type="curve" smooth="yes"/>
      <point x="73" y="513"/>
      <point x="99" y="513"/>
      <point x="116" y="513" type="curve" smooth="yes"/>
    </contour>
  </outline>
</glyph>
<glyph name="AE" format="2">
  <advance width="525"/>
  <unicode hex="00C6"/>
  <outline>
    <contour>
      <point x="157" y="179" type="line"/>
      <point x="264" y="179" type="line"/>
      <point x="264" y="65" type="line"/>
      <point x="251" y="65"/>
      <point x="224" y="65"/>
      <point x="224" y="33" type="curve" smooth="yes"/>
      <point x="224" y="0"/>
      <point x="250" y="0"/>
      <point x="266" y="0" type="curve" smooth="yes"/>
      <point x="457" y="0" type="line" smooth="yes"/>
      <point x="490" y="0"/>
      <point x="499" y="8"/>
      <point x="499" y="42" type="curve" smooth="yes"/>
      <point x="499" y="135" type="line" smooth="yes"/>
      <point x="499" y="148"/>
      <point x="499" y="177"/>
      <point x="469" y="177" type="curve" smooth="yes"/>
      <point x="439" y="177"/>
      <point x="439" y="148"/>
      <point x="439" y="135" type="curve" smooth="yes"/>
      <point x="439" y="65" type="line"/>
      <point x="324" y="65" type="line"/>
      <point x="324" y="284" type="line"/>
      <point x="433" y="284" type="line" smooth="yes"/>
      <point x="447" y="284"/>
      <point x="475" y="284"/>
      <point x="475" y="316" type="curve" smooth="yes"/>
      <point x="475" y="349"/>
      <point x="448" y="349"/>
      <point x="433" y="349" type="curve" smooth="yes"/>
      <point x="324" y="349" type="line"/>
      <point x="324" y="546" type="line"/>
      <point x="431" y="546" type="line"/>
      <point x="431" y="492" type="line" smooth="yes"/>
      <point x="431" y="479"/>
      <point x="431" y="450"/>
      <point x="461" y="450" type="curve" smooth="yes"/>
      <point x="491" y="450"/>
      <point x="491" y="479"/>
      <point x="491" y="492" type="curve" smooth="yes"/>
      <point x="491" y="569" type="line" smooth="yes"/>
      <point x="491" y="602"/>
      <point x="483" y="611"/>
      <point x="449" y="611" type="curve" smooth="yes"/>
      <point x="171" y="611" type="line" smooth="yes"/>
      <point x="156" y="611"/>
      <point x="129" y="611"/>
      <point x="129" y="578" type="curve" smooth="yes"/>
      <point x="129" y="546"/>
      <point x="157" y="546"/>
      <point x="169" y="546" type="curve"/>
      <point x="73" y="65" type="line"/>
      <point x="48" y="65"/>
      <point x="23" y="65"/>
      <point x="23" y="32" type="curve" smooth="yes"/>
      <point x="23" y="0"/>
      <point x="51" y="0"/>
      <point x="66" y="0" type="curve" smooth="yes"/>
      <point x="137" y="0" type="line" smooth="yes"/>
      <point x="152" y="0"/>
      <point x="180" y="0"/>
      <point x="180" y="32" type="curve" smooth="yes"/>
      <point x="180" y="65"/>
      <point x="154" y="65"/>
      <point x="134" y="65" type="curve"/>
    </contour>
    <contour>
      <point x="230" y="546" type="line"/>
      <point x="264" y="546" type="line"/>
      <point x="264" y="244" type="line"/>
      <point x="170" y="244" type="line"/>
    </contour>
  </outline>
</glyph>
<glyph name="caron" format="2">
  <advance width="525"/>
  <unicode hex="02C7"/>
  <outline>
    <contour>
      <point x="399" y="499" type="line" smooth="yes"/>
      <point x="408" y="502"/>
      <point x="425" y="509"/>
      <point x="425" y="529" type="curve" smooth="yes"/>
      <point x="425" y="549"/>
      <point x="412" y="573"/>
      <point x="390" y="573" type="curve" smooth="yes"/>
      <point x="386" y="573"/>
      <point x="383" y="572"/>
      <point x="372" y="567" type="curve" smooth="yes"/>
      <point x="262" y="523" type="line"/>
      <point x="152" y="567" type="line" smooth="yes"/>
      <point x="141" y="572"/>
      <point x="138" y="573"/>
      <point x="134" y="573" type="curve" smooth="yes"/>
      <point x="112" y="573"/>
      <point x="99" y="549"/>
      <point x="99" y="529" type="curve" smooth="yes"/>
      <point x="99" y="509"/>
      <point x="114" y="504"/>
      <point x="126" y="499" type="curve" smooth="yes"/>
      <point x="241" y="457" type="line" smooth="yes"/>
      <point x="256" y="451"/>
      <point x="258" y="451"/>
      <point x="262" y="451" type="curve" smooth="yes"/>
      <point x="266" y="451"/>
      <point x="268" y="451"/>
      <point x="280" y="456" type="curve" smooth="yes"/>
    </contour>
  </outline>
</glyph>
<glyph name="breve" format="2">
  <advance width="525"/>
  <unicode hex="02D8"/>
  <outline>
    <contour>
      <point x="374" y="582" type="curve"/>
      <point x="348" y="570"/>
      <point x="312" y="570"/>
      <point x="262" y="570" type="curve" smooth="yes"/>
      <point x="212" y="570"/>
      <point x="176" y="570"/>
      <point x="150" y="582" type="curve"/>
      <point x="150" y="584"/>
      <point x="146" y="611"/>
      <point x="117" y="611" type="curve" smooth="yes"/>
      <point x="94" y="611"/>
      <point x="84" y="596"/>
      <point x="84" y="579" type="curve" smooth="yes"/>
      <point x="84" y="502"/>
      <point x="192" y="502"/>
      <point x="262" y="502" type="curve" smooth="yes"/>
      <point x="334" y="502"/>
      <point x="440" y="502"/>
      <point x="440" y="580" type="curve" smooth="yes"/>
      <point x="440" y="593"/>
      <point x="432" y="611"/>
      <point x="407" y="611" type="curve" smooth="yes"/>
      <point x="378" y="611"/>
      <point x="374" y="584"/>
    </contour>
  </outline>
</glyph>
<glyph name="Theta" format="2">
  <advance width="525"/>
  <unicode hex="0398"/>
  <outline>
    <contour>
      <point x="468" y="305" type="curve" smooth="yes"/>
      <point x="468" y="594"/>
      <point x="447" y="622"/>
      <point x="262" y="622" type="curve" smooth="yes"/>
      <point x="77" y="622"/>
      <point x="56" y="595"/>
      <point x="56" y="305" type="curve" smooth="yes"/>
      <point x="56" y="16"/>
      <point x="77" y="-11"/>
      <point x="262" y="-11" type="curve" smooth="yes"/>
      <point x="446" y="-11"/>
      <point x="468" y="16"/>
    </contour>
    <contour>
      <point x="262" y="54" type="curve" smooth="yes"/>
      <point x="173" y="54"/>
      <point x="150" y="75"/>
      <point x="139" y="132" type="curve" smooth="yes"/>
      <point x="130" y="180"/>
      <point x="130" y="254"/>
      <point x="130" y="305" type="curve" smooth="yes"/>
      <point x="130" y="362"/>
      <point x="130" y="433"/>
      <point x="139" y="481" type="curve" smooth="yes"/>
      <point x="151" y="538"/>
      <point x="175" y="557"/>
      <point x="262" y="557" type="curve" smooth="yes"/>
      <point x="351" y="557"/>
      <point x="374" y="536"/>
      <point x="385" y="479" type="curve" smooth="yes"/>
      <point x="394" y="431"/>
      <point x="394" y="357"/>
      <point x="394" y="306" type="curve" smooth="yes"/>
      <point x="394" y="249"/>
      <point x="394" y="178"/>
      <point x="385" y="130" type="curve" smooth="yes"/>
      <point x="373" y="73"/>
      <point x="349" y="54"/>
    </contour>
    <contour>
      <point x="356" y="330" type="line" smooth="yes"/>
      <point x="356" y="348"/>
      <point x="356" y="373"/>
      <point x="319" y="373" type="curve" smooth="yes"/>
      <point x="295" y="373"/>
      <point x="284" y="362"/>
      <point x="282" y="342" type="curve"/>
      <point x="242" y="342" type="line"/>
      <point x="240" y="362"/>
      <point x="230" y="373"/>
      <point x="205" y="373" type="curve" smooth="yes"/>
      <point x="168" y="373"/>
      <point x="168" y="348"/>
      <point x="168" y="330" type="curve" smooth="yes"/>
      <point x="168" y="281" type="line" smooth="yes"/>
      <point x="168" y="263"/>
      <point x="168" y="238"/>
      <point x="205" y="238" type="curve" smooth="yes"/>
      <point x="229" y="238"/>
      <point x="240" y="249"/>
      <point x="242" y="269" type="curve"/>
      <point x="282" y="269" type="line"/>
      <point x="284" y="249"/>
      <point x="294" y="238"/>
      <point x="319" y="238" type="curve" smooth="yes"/>
      <point x="356" y="238"/>
      <point x="356" y="263"/>
      <point x="356" y="281" type="curve" smooth="yes"/>
    </contour>
  </outline>
</glyph>
<glyph name="Lambda" format="2">
  <advance width="525"/>
  <unicode hex="039B"/>
  <outline>
    <contour>
      <point x="320" y="585" type="line" smooth="yes"/>
      <point x="311" y="625"/>
      <point x="289" y="625"/>
      <point x="268" y="625" type="curve" smooth="yes"/>
      <point x="256" y="625" type="line" smooth="yes"/>
      <point x="218" y="625"/>
      <point x="211" y="612"/>
      <point x="205" y="585" type="curve" smooth="yes"/>
      <point x="87" y="65" type="line"/>
      <point x="53" y="65"/>
      <point x="29" y="65"/>
      <point x="29" y="32" type="curve" smooth="yes"/>
      <point x="29" y="0"/>
      <point x="58" y="0"/>
      <point x="72" y="0" type="curve" smooth="yes"/>
      <point x="183" y="0" type="line" smooth="yes"/>
      <point x="198" y="0"/>
      <point x="226" y="0"/>
      <point x="226" y="32" type="curve" smooth="yes"/>
      <point x="226" y="65"/>
      <point x="199" y="65"/>
      <point x="183" y="65" type="curve" smooth="yes"/>
      <point x="163" y="65" type="line"/>
      <point x="227" y="355" type="line" smooth="yes"/>
      <point x="229" y="365"/>
      <point x="258" y="497"/>
      <point x="262" y="532" type="curve"/>
      <point x="263" y="532" type="line"/>
      <point x="266" y="500"/>
      <point x="291" y="384"/>
      <point x="297" y="355" type="curve" smooth="yes"/>
      <point x="361" y="65" type="line"/>
      <point x="341" y="65" type="line" smooth="yes"/>
      <point x="326" y="65"/>
      <point x="298" y="65"/>
      <point x="298" y="33" type="curve" smooth="yes"/>
      <point x="298" y="0"/>
      <point x="325" y="0"/>
      <point x="341" y="0" type="curve" smooth="yes"/>
      <point x="452" y="0" type="line" smooth="yes"/>
      <point x="466" y="0"/>
      <point x="495" y="0"/>
      <point x="495" y="32" type="curve" smooth="yes"/>
      <point x="495" y="65"/>
      <point x="471" y="65"/>
      <point x="437" y="65" type="curve"/>
    </contour>
  </outline>
</glyph>
<glyph name="Xi" format="2">
  <advance width="525"/>
  <unicode hex="039E"/>
  <outline>
    <contour>
      <point x="413" y="548" type="line"/>
      <point x="413" y="528"/>
      <point x="413" y="505"/>
      <point x="450" y="505" type="curve" smooth="yes"/>
      <point x="487" y="505"/>
      <point x="487" y="528"/>
      <point x="487" y="547" type="curve" smooth="yes"/>
      <point x="487" y="569" type="line" smooth="yes"/>
      <point x="487" y="602"/>
      <point x="479" y="611"/>
      <point x="445" y="611" type="curve" smooth="yes"/>
      <point x="80" y="611" type="line" smooth="yes"/>
      <point x="46" y="611"/>
      <point x="37" y="603"/>
      <point x="37" y="568" type="curve" smooth="yes"/>
      <point x="37" y="547" type="line" smooth="yes"/>
      <point x="37" y="528"/>
      <point x="37" y="505"/>
      <point x="74" y="505" type="curve" smooth="yes"/>
      <point x="111" y="505"/>
      <point x="111" y="528"/>
      <point x="111" y="548" type="curve"/>
    </contour>
    <contour>
      <point x="449" y="0" type="line" smooth="yes"/>
      <point x="482" y="0"/>
      <point x="491" y="8"/>
      <point x="491" y="42" type="curve" smooth="yes"/>
      <point x="491" y="69" type="line" smooth="yes"/>
      <point x="491" y="88"/>
      <point x="491" y="111"/>
      <point x="454" y="111" type="curve" smooth="yes"/>
      <point x="417" y="111"/>
      <point x="417" y="90"/>
      <point x="417" y="63" type="curve"/>
      <point x="107" y="63" type="line"/>
      <point x="107" y="90"/>
      <point x="107" y="111"/>
      <point x="70" y="111" type="curve" smooth="yes"/>
      <point x="33" y="111"/>
      <point x="33" y="88"/>
      <point x="33" y="69" type="curve" smooth="yes"/>
      <point x="33" y="43" type="line" smooth="yes"/>
      <point x="33" y="9"/>
      <point x="41" y="0"/>
      <point x="76" y="0" type="curve" smooth="yes"/>
    </contour>
    <contour>
      <point x="341" y="286" type="line"/>
      <point x="341" y="254"/>
      <point x="361" y="250"/>
      <point x="378" y="250" type="curve" smooth="yes"/>
      <point x="415" y="250"/>
      <point x="415" y="273"/>
      <point x="415" y="293" type="curve" smooth="yes"/>
      <point x="415" y="342" type="line" smooth="yes"/>
      <point x="415" y="362"/>
      <point x="415" y="385"/>
      <point x="378" y="385" type="curve" smooth="yes"/>
      <point x="361" y="385"/>
      <point x="341" y="382"/>
      <point x="341" y="349" type="curve"/>
      <point x="183" y="349" type="line"/>
      <point x="183" y="381"/>
      <point x="163" y="385"/>
      <point x="146" y="385" type="curve" smooth="yes"/>
      <point x="109" y="385"/>
      <point x="109" y="362"/>
      <point x="109" y="342" type="curve" smooth="yes"/>
      <point x="109" y="293" type="line" smooth="yes"/>
      <point x="109" y="273"/>
      <point x="109" y="250"/>
      <point x="146" y="250" type="curve" smooth="yes"/>
      <point x="163" y="250"/>
      <point x="183" y="253"/>
      <point x="183" y="286" type="curve"/>
    </contour>
  </outline>
</glyph>
<glyph name="Phi" format="2">
  <advance width="525"/>
  <unicode hex="03A6"/>
  <outline>
    <contour>
      <point x="185" y="611" type="line" smooth="yes"/>
      <point x="170" y="611"/>
      <point x="142" y="611"/>
      <point x="142" y="579" type="curve" smooth="yes"/>
      <point x="142" y="546"/>
      <point x="169" y="546"/>
      <point x="185" y="546" type="curve" smooth="yes"/>
      <point x="225" y="546" type="line"/>
      <point x="225" y="452" type="line"/>
      <point x="113" y="439"/>
      <point x="40" y="374"/>
      <point x="40" y="306" type="curve" smooth="yes"/>
      <point x="40" y="234"/>
      <point x="117" y="171"/>
      <point x="225" y="159" type="curve"/>
      <point x="225" y="65" type="line"/>
      <point x="185" y="65" type="line" smooth="yes"/>
      <point x="170" y="65"/>
      <point x="142" y="65"/>
      <point x="142" y="33" type="curve" smooth="yes"/>
      <point x="142" y="0"/>
      <point x="169" y="0"/>
      <point x="185" y="0" type="curve" smooth="yes"/>
      <point x="339" y="0" type="line" smooth="yes"/>
      <point x="354" y="0"/>
      <point x="382" y="0"/>
      <point x="382" y="32" type="curve" smooth="yes"/>
      <point x="382" y="65"/>
      <point x="355" y="65"/>
      <point x="339" y="65" type="curve" smooth="yes"/>
      <point x="299" y="65" type="line"/>
      <point x="299" y="159" type="line"/>
      <point x="411" y="172"/>
      <point x="484" y="237"/>
      <point x="484" y="305" type="curve" smooth="yes"/>
      <point x="484" y="377"/>
      <point x="407" y="440"/>
      <point x="299" y="452" type="curve"/>
      <point x="299" y="546" type="line"/>
      <point x="339" y="546" type="line" smooth="yes"/>
      <point x="354" y="546"/>
      <point x="382" y="546"/>
      <point x="382" y="578" type="curve" smooth="yes"/>
      <point x="382" y="611"/>
      <point x="355" y="611"/>
      <point x="339" y="611" type="curve" smooth="yes"/>
    </contour>
    <contour>
      <point x="225" y="225" type="line"/>
      <point x="149" y="236"/>
      <point x="114" y="274"/>
      <point x="114" y="305" type="curve" smooth="yes"/>
      <point x="114" y="340"/>
      <point x="153" y="376"/>
      <point x="225" y="386" type="curve"/>
    </contour>
    <contour>
      <point x="299" y="386" type="line"/>
      <point x="375" y="375"/>
      <point x="410" y="337"/>
      <point x="410" y="306" type="curve" smooth="yes"/>
      <point x="410" y="271"/>
      <point x="371" y="235"/>
      <point x="299" y="225" type="curve"/>
    </contour>
  </outline>
</glyph>
<glyph name="quoteleft" format="2">
  <advance width="525"/>
  <unicode hex="2018"/>
  <outline>
    <contour>
      <point x="313" y="421" type="curve" smooth="yes"/>
      <point x="313" y="427"/>
      <point x="311" y="469"/>
      <point x="262" y="472" type="curve"/>
      <point x="261" y="472"/>
      <point x="250" y="471"/>
      <point x="249" y="472" type="curve"/>
      <point x="247" y="473"/>
      <point x="247" y="479"/>
      <point x="247" y="485" type="curve" smooth="yes"/>
      <point x="247" y="512"/>
      <point x="255" y="577"/>
      <point x="326" y="619" type="curve"/>
      <point x="336" y="624"/>
      <point x="346" y="630"/>
      <point x="346" y="648" type="curve" smooth="yes"/>
      <point x="346" y="666"/>
      <point x="329" y="681"/>
      <point x="313" y="681" type="curve" smooth="yes"/>
      <point x="289" y="681"/>
      <point x="182" y="613"/>
      <point x="182" y="485" type="curve" smooth="yes"/>
      <point x="182" y="411"/>
      <point x="217" y="370"/>
      <point x="261" y="370" type="curve" smooth="yes"/>
      <point x="297" y="370"/>
      <point x="313" y="399"/>
    </contour>
  </outline>
</glyph>
<glyph name="Omega" format="2">
  <advance width="525"/>
  <unicode hex="2126"/>
  <outline>
    <contour>
      <point x="492" y="71" type="line" smooth="yes"/>
      <point x="492" y="84"/>
      <point x="492" y="113"/>
      <point x="462" y="113" type="curve" smooth="yes"/>
      <point x="432" y="113"/>
      <point x="432" y="85"/>
      <point x="432" y="65" type="curve"/>
      <point x="374" y="65" type="line"/>
      <point x="381" y="112"/>
      <point x="399" y="151"/>
      <point x="427" y="211" type="curve" smooth="yes"/>
      <point x="454" y="270"/>
      <point x="484" y="335"/>
      <point x="484" y="406" type="curve" smooth="yes"/>
      <point x="484" y="528"/>
      <point x="383" y="622"/>
      <point x="262" y="622" type="curve" smooth="yes"/>
      <point x="141" y="622"/>
      <point x="40" y="528"/>
      <point x="40" y="406" type="curve" smooth="yes"/>
      <point x="40" y="334"/>
      <point x="69" y="271"/>
      <point x="106" y="191" type="curve" smooth="yes"/>
      <point x="131" y="137"/>
      <point x="144" y="102"/>
      <point x="150" y="65" type="curve"/>
      <point x="92" y="65" type="line"/>
      <point x="92" y="85"/>
      <point x="92" y="113"/>
      <point x="62" y="113" type="curve" smooth="yes"/>
      <point x="32" y="113"/>
      <point x="32" y="84"/>
      <point x="32" y="71" type="curve" smooth="yes"/>
      <point x="32" y="43" type="line" smooth="yes"/>
      <point x="32" y="9"/>
      <point x="40" y="0"/>
      <point x="75" y="0" type="curve" smooth="yes"/>
      <point x="176" y="0" type="line" smooth="yes"/>
      <point x="194" y="0"/>
      <point x="218" y="0"/>
      <point x="218" y="36" type="curve" smooth="yes"/>
      <point x="218" y="103"/>
      <point x="186" y="178"/>
      <point x="164" y="228" type="curve" smooth="yes"/>
      <point x="138" y="290"/>
      <point x="114" y="348"/>
      <point x="114" y="406" type="curve" smooth="yes"/>
      <point x="114" y="493"/>
      <point x="183" y="557"/>
      <point x="262" y="557" type="curve" smooth="yes"/>
      <point x="341" y="557"/>
      <point x="410" y="493"/>
      <point x="410" y="406" type="curve" smooth="yes"/>
      <point x="410" y="348"/>
      <point x="385" y="289"/>
      <point x="363" y="238" type="curve" smooth="yes"/>
      <point x="336" y="173"/>
      <point x="306" y="102"/>
      <point x="306" y="37" type="curve" smooth="yes"/>
      <point x="306" y="0"/>
      <point x="329" y="0"/>
      <point x="349" y="0" type="curve" smooth="yes"/>
      <point x="450" y="0" type="line" smooth="yes"/>
      <point x="483" y="0"/>
      <point x="492" y="8"/>
      <point x="492" y="42" type="curve" smooth="yes"/>
    </contour>
  </outline>
</glyph>
<glyph name="Delta" format="2">
  <advance width="525"/>
  <unicode hex="2206"/>
  <outline>
    <contour>
      <point x="321" y="587" type="line" smooth="yes"/>
      <point x="310" y="625"/>
      <point x="288" y="625"/>
      <point x="262" y="625" type="curve" smooth="yes"/>
      <point x="231" y="625"/>
      <point x="215" y="624"/>
      <point x="204" y="587" type="curve" smooth="yes"/>
      <point x="38" y="39" type="line" smooth="yes"/>
      <point x="36" y="33"/>
      <point x="34" y="27"/>
      <point x="34" y="23" type="curve" smooth="yes"/>
      <point x="34" y="0"/>
      <point x="58" y="0"/>
      <point x="71" y="0" type="curve" smooth="yes"/>
      <point x="453" y="0" type="line" smooth="yes"/>
      <point x="470" y="0"/>
      <point x="487" y="0"/>
      <point x="490" y="23" type="curve"/>
    </contour>
    <contour>
      <point x="228" y="416" type="line" smooth="yes"/>
      <point x="255" y="507"/>
      <point x="261" y="532"/>
      <point x="261" y="534" type="curve"/>
      <point x="263" y="534" type="line"/>
      <point x="264" y="527"/>
      <point x="272" y="496"/>
      <point x="296" y="416" type="curve" smooth="yes"/>
      <point x="399" y="72" type="line"/>
      <point x="125" y="72" type="line"/>
    </contour>
  </outline>
</glyph>
<glyph name="dotlessj" format="2">
  <advance width="525"/>
  <outline>
    <contour>
      <point x="371" y="389" type="line" smooth="yes"/>
      <point x="371" y="422"/>
      <point x="363" y="431"/>
      <point x="329" y="431" type="curve" smooth="yes"/>
      <point x="167" y="431" type="line" smooth="yes"/>
      <point x="152" y="431"/>
      <point x="125" y="431"/>
      <point x="125" y="399" type="curve" smooth="yes"/>
      <point x="125" y="366"/>
      <point x="151" y="366"/>
      <point x="167" y="366" type="curve" smooth="yes"/>
      <point x="297" y="366" type="line"/>
      <point x="297" y="-38" type="line" smooth="yes"/>
      <point x="297" y="-54"/>
      <point x="297" y="-92"/>
      <point x="271" y="-128" type="curve" smooth="yes"/>
      <point x="245" y="-162"/>
      <point x="216" y="-162"/>
      <point x="193" y="-162" type="curve" smooth="yes"/>
      <point x="179" y="-162"/>
      <point x="173" y="-162"/>
      <point x="158" y="-161" type="curve"/>
      <point x="142" y="-159"/>
      <point x="141" y="-158"/>
      <point x="141" y="-150" type="curve" smooth="yes"/>
      <point x="140" y="-111"/>
      <point x="107" y="-102"/>
      <point x="95" y="-102" type="curve" smooth="yes"/>
      <point x="73" y="-102"/>
      <point x="48" y="-118"/>
      <point x="48" y="-150" type="curve" smooth="yes"/>
      <point x="48" y="-227"/>
      <point x="148" y="-227"/>
      <point x="188" y="-227" type="curve" smooth="yes"/>
      <point x="333" y="-227"/>
      <point x="371" y="-109"/>
      <point x="371" y="-41" type="curve" smooth="yes"/>
    </contour>
  </outline>
</glyph>
<glyph name="sfthyphen" format="2">
  <advance width="525"/>
  <outline>
    <contour>
      <point x="419" y="268" type="line" smooth="yes"/>
      <point x="430" y="268"/>
      <point x="468" y="268"/>
      <point x="468" y="305" type="curve" smooth="yes"/>
      <point x="468" y="343"/>
      <point x="431" y="343"/>
      <point x="419" y="343" type="curve" smooth="yes"/>
      <point x="105" y="343" type="line" smooth="yes"/>
      <point x="94" y="343"/>
      <point x="56" y="343"/>
      <point x="56" y="306" type="curve" smooth="yes"/>
      <point x="56" y="268"/>
      <point x="93" y="268"/>
      <point x="105" y="268" type="curve" smooth="yes"/>
    </contour>
  </outline>
</glyph>
<glyph name="visiblespace" format="2">
  <advance width="525"/>
  <outline>
    <contour>
      <point x="480" y="206" type="line" smooth="yes"/>
      <point x="480" y="223"/>
      <point x="480" y="241"/>
      <point x="457" y="241" type="curve" smooth="yes"/>
      <point x="435" y="241"/>
      <point x="435" y="222"/>
      <point x="435" y="206" type="curve" smooth="yes"/>
      <point x="435" y="-88" type="line"/>
      <point x="89" y="-88" type="line"/>
      <point x="89" y="206" type="line" smooth="yes"/>
      <point x="89" y="223"/>
      <point x="89" y="241"/>
      <point x="66" y="241" type="curve" smooth="yes"/>
      <point x="44" y="241"/>
      <point x="44" y="222"/>
      <point x="44" y="206" type="curve" smooth="yes"/>
      <point x="44" y="-97" type="line" smooth="yes"/>
      <point x="44" y="-128"/>
      <point x="49" y="-133"/>
      <point x="80" y="-133" type="curve" smooth="yes"/>
      <point x="444" y="-133" type="line" smooth="yes"/>
      <point x="475" y="-133"/>
      <point x="480" y="-128"/>
      <point x="480" y="-97" type="curve" smooth="yes"/>
    </contour>
  </outline>
</glyph>
